<svg version="1.1" id="Layer_1" xmlns="http://www.w3.org/2000/svg" xmlns:xlink="http://www.w3.org/1999/xlink" x="0px" y="0px"
	 width="120" height="30" viewBox="0 0 1536 1536">

<path fill="#F2F2F2" opacity="1.000000" stroke="none" 
	d="
M325.565460,823.440613 
	C330.606232,812.186646 335.449036,801.272522 340.258240,790.343567 
	C342.199860,785.931213 344.332367,781.578735 345.916229,777.037903 
	C349.557709,766.597900 344.973083,755.318726 335.537933,750.826111 
	C323.577271,745.130981 310.943390,747.644165 305.189453,757.785522 
	C301.373535,764.511108 298.699646,771.939819 296.000031,779.233521 
	C286.098206,805.985840 260.932770,814.813049 239.017334,809.441895 
	C207.766861,801.782959 191.061722,766.075867 204.382599,736.636719 
	C211.558426,720.778198 223.616165,710.268616 240.164597,705.060242 
	C260.035553,698.806152 279.137726,702.190369 297.551727,710.631653 
	C307.313324,715.106628 316.528839,720.792847 326.358856,725.090576 
	C331.849518,727.491150 338.133209,729.524963 343.989838,729.352844 
	C358.026520,728.940247 365.441742,716.579224 361.531342,702.204285 
	C357.987549,689.176880 348.722687,682.680908 336.494019,679.061829 
	C319.954681,674.167053 309.150391,663.156006 303.802887,646.912231 
	C296.659454,625.213196 308.447540,598.188110 328.387756,587.017090 
	C356.747742,571.129272 393.081207,583.039246 405.966156,615.249268 
	C412.723785,632.142090 411.684601,650.094788 404.404724,666.869934 
	C398.668335,680.088379 391.963043,692.960449 384.740875,705.438110 
	C378.161530,716.805237 380.841858,730.219177 388.632721,736.858276 
	C398.743835,745.474487 414.871277,743.570129 422.963104,732.355286 
	C425.986725,728.164734 428.046661,723.178467 429.993286,718.332947 
	C433.691193,709.128174 436.426910,699.533630 444.375519,692.634644 
	C456.287140,682.295959 470.205414,678.083679 485.460358,680.578003 
	C509.207825,684.460938 524.829163,701.009338 528.475586,723.128967 
	C532.677246,748.616699 521.369873,771.328369 496.850189,782.856140 
	C478.264221,791.594116 459.503418,789.984070 441.214447,782.433472 
	C427.424957,776.740417 413.861267,770.311157 400.777740,763.148804 
	C386.556610,755.363831 373.627502,760.828674 368.635468,768.381836 
	C362.859772,777.120728 364.634583,790.972839 372.547424,799.289917 
	C379.050140,806.124939 387.240021,809.854187 396.075806,812.675537 
	C432.840393,824.414917 435.257202,863.809082 417.460449,887.696472 
	C404.837555,904.639282 387.316956,912.297485 366.720245,908.471497 
	C343.861359,904.225403 329.253662,889.473328 323.184723,866.873474 
	C319.282379,852.341614 320.354736,837.925964 325.565460,823.440613 
z"/>
<path fill="#EFF0EF" opacity="1.000000" stroke="none" 
	d="
M800.350525,824.503235 
	C800.799561,838.133911 801.435913,851.761719 801.646606,865.396057 
	C801.872437,880.006836 801.697632,894.623718 801.697632,909.614624 
	C792.815552,909.614624 784.399902,909.614624 775.543396,909.614624 
	C775.543396,834.477356 775.543396,759.158264 775.543396,683.533203 
	C784.001709,683.533203 792.430420,683.533203 801.617737,683.533203 
	C801.617737,692.082825 801.617737,700.734863 801.617737,710.710815 
	C820.536438,677.019714 868.652039,674.056641 889.947632,689.158691 
	C904.691528,699.614441 912.528076,714.299377 916.069641,731.330261 
	C921.053528,755.296753 921.121948,779.329041 912.650696,802.648865 
	C904.450195,825.223083 889.820007,841.718628 865.427002,846.908386 
	C839.762756,852.368469 818.226562,845.037537 801.399780,823.600098 
	C800.723877,823.054871 800.470276,822.975891 800.216736,822.896973 
	C800.261353,823.432373 800.305908,823.967834 800.350525,824.503235 
M811.961243,807.015808 
	C821.208496,821.404236 834.200134,828.732422 851.432861,826.966187 
	C868.748108,825.191650 880.176880,815.440735 886.411560,799.372131 
	C891.676514,785.802734 892.794800,771.652466 892.368164,757.265564 
	C891.994629,744.666382 889.840393,732.454102 883.697266,721.339294 
	C880.787354,716.074341 877.452271,710.783813 870.905273,708.154480 
	C863.324646,702.318481 854.453857,702.619507 845.629883,702.967590 
	C824.292725,703.809082 806.372070,719.195679 804.054932,740.365417 
	C802.540649,754.200439 802.828369,768.307922 803.311340,782.258667 
	C803.609985,790.887939 806.477905,799.204529 811.961243,807.015808 
z"/>
<path fill="#F1F1F1" opacity="1.000000" stroke="none" 
	d="
M950.045654,895.955322 
	C949.804871,827.727539 949.573242,759.990662 949.310608,692.253967 
	C949.276062,683.336182 949.202393,683.374634 957.810913,683.490662 
	C963.287231,683.564453 968.765381,683.504517 975.117432,683.504517 
	C975.117432,692.237122 975.117432,700.744873 975.117432,709.252686 
	C975.555359,709.368774 975.993225,709.484863 976.431152,709.601013 
	C978.712891,706.709961 980.996948,703.820679 983.276001,700.927551 
	C996.609863,684.000916 1014.718445,678.750854 1035.222534,680.484009 
	C1063.377686,682.864014 1080.179932,697.284851 1088.016724,726.756897 
	C1095.480103,754.823853 1094.336792,782.823242 1082.614990,809.692688 
	C1073.943604,829.569458 1059.341675,843.314575 1037.435425,847.387512 
	C1020.251770,850.582397 1003.696472,849.101440 989.211365,837.714661 
	C982.728149,832.618286 979.007751,825.856934 975.876953,818.321655 
	C975.876953,848.665955 975.876953,879.010254 975.876953,909.728455 
	C967.058838,909.728455 958.674561,909.728455 950.045044,909.728455 
	C950.045044,905.313965 950.045044,900.880127 950.045654,895.955322 
M1029.240356,702.887207 
	C1020.554932,702.125671 1012.047546,702.560242 1003.356812,706.818909 
	C986.083618,714.582947 977.764160,728.355530 976.926514,746.868652 
	C976.543152,755.340698 977.280640,763.874146 976.697144,772.323669 
	C975.910461,783.716614 978.680237,794.164856 984.010742,803.936829 
	C992.196594,818.943298 1004.538208,827.581726 1022.216492,827.288879 
	C1039.506348,827.002441 1051.039917,817.734924 1057.710449,802.758789 
	C1068.399292,778.761108 1068.991943,753.798401 1060.877563,729.002014 
	C1056.126465,714.482849 1046.358398,704.532776 1029.240356,702.887207 
z"/>
<path fill="#F1F1F1" opacity="1.000000" stroke="none" 
	d="
M1253.611450,848.014404 
	C1212.354248,846.104553 1186.288696,818.907532 1182.895508,779.591736 
	C1181.577515,764.318237 1182.417725,749.429016 1186.950439,734.765930 
	C1191.251099,720.852966 1198.616211,708.858887 1209.062744,698.708862 
	C1210.477661,697.334045 1211.416870,695.469482 1212.558838,693.856445 
	C1213.121948,693.781677 1214.511353,694.007751 1215.329956,693.427917 
	C1231.153442,682.220581 1248.837036,679.499329 1267.636230,681.795471 
	C1289.765869,684.498535 1304.631592,696.936951 1314.082397,716.581909 
	C1322.332764,733.731812 1321.714111,752.005432 1321.195923,770.653442 
	C1283.632690,770.653442 1246.393311,770.653442 1208.432861,770.653442 
	C1208.594849,780.302368 1210.148804,789.183228 1213.788574,797.814209 
	C1222.102051,817.528076 1237.704834,825.445801 1258.165161,826.180359 
	C1275.181396,826.791199 1291.113525,823.064758 1306.174927,815.277893 
	C1307.484985,814.600586 1308.831787,813.994202 1311.690430,812.619751 
	C1311.690430,820.759033 1311.802734,827.951477 1311.545898,835.130676 
	C1311.514526,836.012695 1309.620850,837.062500 1308.402100,837.632202 
	C1291.172852,845.685974 1272.966553,848.715454 1253.611450,848.014404 
M1235.359009,705.753723 
	C1220.261597,712.213623 1208.194824,733.481140 1210.226929,749.903320 
	C1238.587891,749.903320 1266.933716,749.903320 1295.227661,749.903320 
	C1297.241577,734.723816 1291.212402,718.186218 1280.523560,710.396790 
	C1266.729858,700.344727 1251.711914,699.736450 1235.359009,705.753723 
z"/>
<path fill="#F4F4F2" opacity="1.000000" stroke="none" 
	d="
M1150.962769,792.000000 
	C1150.961548,810.312744 1150.961548,828.125366 1150.961548,846.383545 
	C1142.386475,846.383545 1134.005859,846.383545 1125.019775,846.383545 
	C1125.019775,769.210205 1125.019775,691.888916 1125.019775,614.184570 
	C1133.120361,614.184570 1141.627563,614.184570 1150.963989,614.184570 
	C1150.963989,673.391296 1150.963989,732.445679 1150.962769,792.000000 
z"/>
<path fill="#EFF0EF" opacity="1.000000" stroke="none" 
	d="
M623.359375,701.253906 
	C623.375854,706.444946 623.375854,711.161987 623.375854,715.878967 
	C644.503357,679.161743 666.924805,678.583313 687.405701,682.089661 
	C685.994385,691.651245 684.581970,701.220215 683.188416,710.661438 
	C676.953125,709.209656 671.757446,707.487000 666.433167,706.865723 
	C654.859009,705.515137 645.782715,710.628113 638.557495,719.244751 
	C629.450989,730.105042 624.103027,742.037903 624.473328,756.922241 
	C625.209961,786.530518 624.691345,816.169922 624.691345,846.332031 
	C615.215637,846.332031 606.502930,846.332031 597.391785,846.332031 
	C597.391785,792.522522 597.391785,738.334351 597.391785,683.704102 
	C605.689758,683.704102 613.927673,683.704102 623.342834,683.704102 
	C623.342834,689.268127 623.342834,695.023987 623.359375,701.253906 
z"/>
<path fill="#EEEEEE" opacity="1.000000" stroke="none" 
	d="
M709.262756,734.999512 
	C709.260864,717.700745 709.260864,700.902039 709.260864,683.738892 
	C717.750671,683.738892 726.176575,683.738892 735.233398,683.738892 
	C735.233398,737.656372 735.233398,791.695618 735.233398,846.271118 
	C726.932312,846.271118 718.270020,846.271118 709.264648,846.271118 
	C709.264648,809.322632 709.264648,772.411072 709.262756,734.999512 
z"/>

<path fill="#EFF0EF" opacity="1.000000" stroke="none" 
	d="
M712.039307,612.703491 
	C717.903992,612.653137 723.369080,612.585510 728.826355,612.760010 
	C733.274780,612.902283 738.525818,618.857910 738.529541,623.841370 
	C738.532837,628.323669 738.367432,632.826172 737.919312,637.283875 
	C737.315491,643.290405 733.327454,647.473022 727.301086,647.920105 
	C721.884766,648.321777 716.352722,648.407654 710.981689,647.743652 
	C707.320435,647.291077 704.196350,644.982117 704.150635,640.473267 
	C704.095215,635.008240 703.771790,629.526672 704.088806,624.082825 
	C704.382568,619.038757 706.525513,614.817749 712.039307,612.703491 
z"/>
<path fill="#1A1C1B" opacity="1.000000" stroke="none" 
	d="
M195.854767,757.376709 
	C196.080231,754.814270 196.278687,752.602600 196.477142,750.390869 
	C196.931366,750.411072 197.385574,750.431213 197.839783,750.451355 
	C197.839783,755.545959 197.839783,760.640503 197.839783,765.735107 
	C197.350693,765.770203 196.861603,765.805359 196.372513,765.840454 
	C196.190933,763.136108 196.009338,760.431702 195.854767,757.376709 
z"/>


<path fill="#1A1C1B" opacity="1.000000" stroke="none" 
	d="
M870.975464,708.501587 
	C870.755249,709.937683 870.464844,711.026611 870.030701,712.654419 
	C866.281250,712.654419 862.408264,712.654419 858.727173,712.654419 
	C851.936707,712.138062 845.252441,711.629761 840.439941,711.263794 
	C833.908447,716.556824 829.049011,721.361511 823.385010,724.865723 
	C816.289917,729.255249 811.934998,739.231506 813.116272,750.155701 
	C813.653625,755.124756 813.207520,760.200073 813.207520,765.227234 
	C812.679382,765.276611 812.151184,765.326050 811.623047,765.375427 
	C811.079102,762.672974 810.535156,759.970459 809.991211,757.267944 
	C809.659363,757.316833 809.327454,757.365662 808.995605,757.414551 
	C808.995605,760.388306 808.995605,763.362122 808.995605,766.335876 
	C808.995605,769.245728 808.995605,772.155518 808.995605,775.065369 
	C808.583069,775.100403 808.170532,775.135376 807.757996,775.170410 
	C807.210388,770.652100 806.662720,766.133789 806.115051,761.615479 
	C805.897827,761.606445 805.680542,761.597412 805.463318,761.588379 
	C805.463318,766.669373 805.263245,771.765747 805.649902,776.817139 
	C805.718567,777.714050 809.010986,778.117065 809.465515,779.276917 
	C810.951904,783.069702 812.122681,787.052246 812.833252,791.064758 
	C813.573120,795.243286 813.637512,799.541382 813.997253,803.787231 
	C814.505859,803.833069 815.014465,803.878906 815.523010,803.924744 
	C814.404480,804.552368 813.285889,805.179932 811.973389,806.090210 
	C806.477905,799.204529 803.609985,790.887939 803.311340,782.258667 
	C802.828369,768.307922 802.540649,754.200439 804.054932,740.365417 
	C806.372070,719.195679 824.292725,703.809082 845.629883,702.967590 
	C854.453857,702.619507 863.324646,702.318481 870.975464,708.501587 
z"/>


<path fill="#1A1C1B" opacity="1.000000" stroke="none" 
	d="
M1029.629639,703.014282 
	C1028.432129,704.000916 1026.936890,705.255127 1025.241699,705.648865 
	C1019.179382,707.057068 1013.065063,708.268005 1006.926086,709.286743 
	C1006.115173,709.421387 1005.048218,708.013306 1004.090820,706.976318 
	C1012.047546,702.560242 1020.554932,702.125671 1029.629639,703.014282 
z"/>

</svg>